<?xml version="1.0" encoding="UTF-8"?>
<!DOCTYPE svg PUBLIC "-//W3C//DTD SVG 1.1//EN" "http://www.w3.org/Graphics/SVG/1.1/DTD/svg11.dtd">
<svg xmlns="http://www.w3.org/2000/svg" version="1.1" width="512px" height="512px" style="shape-rendering:geometricPrecision; text-rendering:geometricPrecision; image-rendering:optimizeQuality; fill-rule:evenodd; clip-rule:evenodd" xmlns:xlink="http://www.w3.org/1999/xlink">
<linearGradient id="theme" x1="0" y1="0" x2="1" y2="1">
      <stop offset="0%" stop-color="#F96D69" />
      <stop offset="100%" stop-color="#FE5493" />
    </linearGradient>
<g><path style="opacity:0.904" fill="url(#theme)"  d="M 242.5,31.5 C 282.986,27.9853 312.153,44.3187 330,80.5C 336.285,98.253 337.119,116.253 332.5,134.5C 358.827,135.333 385.16,135.833 411.5,136C 412.416,136.374 413.25,136.874 414,137.5C 438.612,204.392 462.945,271.392 487,338.5C 487.667,384.167 487.667,429.833 487,475.5C 486.626,476.416 486.126,477.25 485.5,478C 408.914,479.164 332.248,479.664 255.5,479.5C 179.5,479.333 103.5,479.167 27.5,479C 26.5838,478.626 25.7504,478.126 25,477.5C 23.3437,431.25 23.0103,384.917 24,338.5C 47.6667,272.833 71.3333,207.167 95,141.5C 95.6853,138.943 97.1853,137.109 99.5,136C 125.84,135.833 152.173,135.333 178.5,134.5C 168.935,90.1343 184.268,57.6343 224.5,37C 230.531,34.8324 236.531,32.999 242.5,31.5 Z M 254.5,47.5 C 285.936,49.7768 306.769,65.7768 317,95.5C 322.593,136.241 305.76,162.741 266.5,175C 262.961,181.913 259.294,188.746 255.5,195.5C 251.706,188.746 248.039,181.913 244.5,175C 206.669,163.849 189.502,138.682 193,99.5C 201.521,67.8001 222.021,50.4667 254.5,47.5 Z M 111.5,151.5 C 136.169,151.333 160.836,151.5 185.5,152C 196.582,170.405 212.416,182.905 233,189.5C 238.333,200.167 243.667,210.833 249,221.5C 253.333,224.167 257.667,224.167 262,221.5C 267.333,210.833 272.667,200.167 278,189.5C 298.53,182.833 314.364,170.333 325.5,152C 350.164,151.5 374.831,151.333 399.5,151.5C 399.5,188.833 399.5,226.167 399.5,263.5C 303.5,263.5 207.5,263.5 111.5,263.5C 111.5,226.167 111.5,188.833 111.5,151.5 Z M 94.5,192.5 C 95.6634,217.997 95.8301,243.663 95,269.5C 87.462,291.281 79.6287,312.948 71.5,334.5C 62.1845,335.665 52.8511,335.832 43.5,335C 60.9288,287.645 77.9288,240.145 94.5,192.5 Z M 415.5,192.5 C 433.104,239.803 450.437,287.303 467.5,335C 458.149,335.832 448.816,335.665 439.5,334.5C 431.371,312.948 423.538,291.281 416,269.5C 415.5,243.835 415.333,218.169 415.5,192.5 Z M 109.5,279.5 C 206.836,279.167 304.169,279.5 401.5,280.5C 408.073,298.722 414.74,316.888 421.5,335C 384.833,335.333 348.167,335.667 311.5,336C 308.438,337.061 305.938,338.894 304,341.5C 301.382,347.972 299.382,354.638 298,361.5C 297.215,363.286 296.049,364.786 294.5,366C 269.563,367.638 244.563,367.971 219.5,367C 216.545,366.608 214.378,365.108 213,362.5C 211.589,354.849 209.255,347.516 206,340.5C 203.92,338.877 201.754,337.377 199.5,336C 162.833,335.667 126.167,335.333 89.5,335C 96.4642,316.607 103.131,298.107 109.5,279.5 Z M 39.5,351.5 C 90.5011,351.333 141.501,351.5 192.5,352C 194.279,358.945 196.445,365.779 199,372.5C 202.1,377.8 206.6,381.3 212.5,383C 241.167,383.667 269.833,383.667 298.5,383C 304.4,381.3 308.9,377.8 312,372.5C 314.555,365.779 316.721,358.945 318.5,352C 369.499,351.5 420.499,351.333 471.5,351.5C 471.5,388.833 471.5,426.167 471.5,463.5C 327.5,463.5 183.5,463.5 39.5,463.5C 39.5,426.167 39.5,388.833 39.5,351.5 Z"/></g>
<g><path style="opacity:0.904" fill="url(#theme)" d="M 224.5,74.5 C 227.794,74.259 230.794,75.0924 233.5,77C 240.681,84.348 248.014,91.5146 255.5,98.5C 262.986,91.5146 270.319,84.348 277.5,77C 285.076,72.6225 290.076,74.6225 292.5,83C 292.091,85.3207 291.257,87.4874 290,89.5C 282.652,96.681 275.485,104.014 268.5,111.5C 275.485,118.986 282.652,126.319 290,133.5C 294.409,141.349 292.242,146.349 283.5,148.5C 281.39,147.946 279.39,147.112 277.5,146C 270.319,138.652 262.986,131.485 255.5,124.5C 248.014,131.485 240.681,138.652 233.5,146C 225.63,150.398 220.63,148.231 218.5,139.5C 218.577,137.701 219.077,136.034 220,134.5C 227.681,126.986 235.181,119.319 242.5,111.5C 235.515,104.014 228.348,96.681 221,89.5C 217.018,83.2348 218.185,78.2348 224.5,74.5 Z"/></g>
</svg>
