<?xml version="1.0" encoding="UTF-8"?>
<!DOCTYPE svg PUBLIC "-//W3C//DTD SVG 1.1//EN" "http://www.w3.org/Graphics/SVG/1.1/DTD/svg11.dtd">
<svg xmlns="http://www.w3.org/2000/svg" version="1.1" width="100px" height="100px" style="shape-rendering:geometricPrecision; text-rendering:geometricPrecision; image-rendering:optimizeQuality; fill-rule:evenodd; clip-rule:evenodd" xmlns:xlink="http://www.w3.org/1999/xlink">
<g><path style="opacity:0.935" fill="#ffffff" d="M 31.5,17.5 C 33.5273,17.3379 35.5273,17.5045 37.5,18C 42.3333,22.8333 47.1667,27.6667 52,32.5C 53.8333,38.6667 51.6667,40.8333 45.5,39C 43.3333,36.8333 41.1667,34.6667 39,32.5C 38.6667,48.5 38.3333,64.5 38,80.5C 35.6667,81.8333 33.3333,81.8333 31,80.5C 30.6667,64.5 30.3333,48.5 30,32.5C 27.8333,34.6667 25.6667,36.8333 23.5,39C 17.3333,40.8333 15.1667,38.6667 17,32.5C 22.0365,27.6313 26.8698,22.6313 31.5,17.5 Z"/></g>
<g><path style="opacity:0.935" fill="#ffffff" d="M 61.5,17.5 C 63.7925,17.2436 65.9592,17.5769 68,18.5C 68.3333,34.5 68.6667,50.5 69,66.5C 71.1667,64.3333 73.3333,62.1667 75.5,60C 81.6667,58.1667 83.8333,60.3333 82,66.5C 77.1667,71.3333 72.3333,76.1667 67.5,81C 65.5,81.6667 63.5,81.6667 61.5,81C 56.6667,76.1667 51.8333,71.3333 47,66.5C 45.1667,60.3333 47.3333,58.1667 53.5,60C 55.6667,62.1667 57.8333,64.3333 60,66.5C 60.1815,50.0928 60.6815,33.7595 61.5,17.5 Z"/></g>
</svg>
